<svg id="home-24px" xmlns="http://www.w3.org/2000/svg" width="24" height="24" viewBox="0 0 24 24">
  <path id="Path_1" data-name="Path 1" d="M0,0H24V24H0Z" fill="none"/>
  <path id="home" d="M15.368,6.645h0L9.134.411a1.406,1.406,0,0,0-1.989,0L.915,6.641l-.006.006a1.406,1.406,0,0,0,.936,2.4l.043,0h.248v4.587a1.648,1.648,0,0,0,1.646,1.646H6.221a.448.448,0,0,0,.448-.448v-3.6a.752.752,0,0,1,.751-.751H8.858a.752.752,0,0,1,.751.751v3.6a.448.448,0,0,0,.448.448H12.5a1.648,1.648,0,0,0,1.646-1.646V9.046h.23a1.407,1.407,0,0,0,1-2.4ZM14.734,8a.508.508,0,0,1-.362.15h-.678a.448.448,0,0,0-.448.448v5.034a.752.752,0,0,1-.751.751H10.5V11.235A1.648,1.648,0,0,0,8.858,9.589H7.42a1.648,1.648,0,0,0-1.647,1.646v3.148H3.782a.752.752,0,0,1-.751-.751V8.6a.448.448,0,0,0-.448-.448H1.9a.511.511,0,0,1-.352-.872h0L7.778,1.044a.511.511,0,0,1,.723,0l6.231,6.231,0,0a.512.512,0,0,1,0,.722Zm0,0" transform="translate(3.835 4.361)"/>
</svg>
